<svg width="86" height="26" viewBox="0 0 86 26" fill="none" xmlns="http://www.w3.org/2000/svg">
<path fill-rule="evenodd" clip-rule="evenodd" d="M0 4.875C0 3.58207 0.505713 2.34209 1.40589 1.42785C2.30606 0.513615 3.52696 0 4.8 0H71.6C72.0243 0 72.4313 0.171205 72.7314 0.475952C73.0314 0.780698 73.2 1.19402 73.2 1.625C73.2 2.05598 73.3686 2.4693 73.6686 2.77405C73.9687 3.07879 74.3757 3.25 74.8 3.25C75.2243 3.25 75.6313 3.07879 75.9314 2.77405C76.2314 2.4693 76.4 2.05598 76.4 1.625C76.4 1.19402 76.5686 0.780698 76.8686 0.475952C77.1687 0.171205 77.5757 0 78 0H81.2C82.473 0 83.6939 0.513615 84.5941 1.42785C85.4943 2.34209 86 3.58207 86 4.875V21.125C86 22.4179 85.4943 23.6579 84.5941 24.5721C83.6939 25.4864 82.473 26 81.2 26H78C77.5757 26 77.1687 25.8288 76.8686 25.524C76.5686 25.2193 76.4 24.806 76.4 24.375C76.4 23.944 76.2314 23.5307 75.9314 23.226C75.6313 22.9212 75.2243 22.75 74.8 22.75C74.3757 22.75 73.9687 22.9212 73.6686 23.226C73.3686 23.5307 73.2 23.944 73.2 24.375C73.2 24.806 73.0314 25.2193 72.7314 25.524C72.4313 25.8288 72.0243 26 71.6 26H4.8C3.52696 26 2.30606 25.4864 1.40589 24.5721C0.505713 23.6579 0 22.4179 0 21.125V4.875ZM74.8 8.125C75.2243 8.125 75.6313 8.29621 75.9314 8.60095C76.2314 8.9057 76.4 9.31902 76.4 9.75V10.5625C76.4 10.9935 76.2314 11.4068 75.9314 11.7115C75.6313 12.0163 75.2243 12.1875 74.8 12.1875C74.3757 12.1875 73.9687 12.0163 73.6686 11.7115C73.3686 11.4068 73.2 10.9935 73.2 10.5625V9.75C73.2 9.31902 73.3686 8.9057 73.6686 8.60095C73.9687 8.29621 74.3757 8.125 74.8 8.125ZM76.4 15.4375C76.4 15.0065 76.2314 14.5932 75.9314 14.2885C75.6313 13.9837 75.2243 13.8125 74.8 13.8125C74.3757 13.8125 73.9687 13.9837 73.6686 14.2885C73.3686 14.5932 73.2 15.0065 73.2 15.4375V16.25C73.2 16.681 73.3686 17.0943 73.6686 17.399C73.9687 17.7038 74.3757 17.875 74.8 17.875C75.2243 17.875 75.6313 17.7038 75.9314 17.399C76.2314 17.0943 76.4 16.681 76.4 16.25V15.4375Z" fill="white"/>
<path d="M7.06641 8.7207H9.9375C10.3945 8.7207 10.8223 8.79688 11.2207 8.94922C11.623 9.09766 11.9512 9.33789 12.2051 9.66992C12.459 10.002 12.5859 10.4297 12.5859 10.9531C12.5859 11.3086 12.4961 11.6328 12.3164 11.9258C12.1367 12.2188 11.9199 12.4336 11.666 12.5703C11.9121 12.668 12.1367 12.8242 12.3398 13.0391C12.543 13.2539 12.7031 13.5 12.8203 13.7773C12.9375 14.0508 12.9961 14.3242 12.9961 14.5977C12.9961 15.0938 12.8711 15.5234 12.6211 15.8867C12.375 16.25 12.0449 16.5273 11.6309 16.7188C11.2168 16.9062 10.7715 17 10.2949 17H7.06641V8.7207ZM10.0781 12.0547C10.4141 12.0547 10.6875 11.9785 10.8984 11.8262C11.1133 11.6738 11.2207 11.4102 11.2207 11.0352C11.2207 10.7227 11.1035 10.4824 10.8691 10.3145C10.6348 10.1465 10.332 10.0625 9.96094 10.0625H8.55469V12.0547H10.0781ZM10.3184 15.582C10.709 15.582 11.0078 15.4863 11.2148 15.2949C11.4258 15.1035 11.5312 14.8164 11.5312 14.4336C11.5312 14.2344 11.4785 14.0527 11.373 13.8887C11.2676 13.7207 11.1191 13.5879 10.9277 13.4902C10.7363 13.3887 10.5137 13.3379 10.2598 13.3379H8.55469V15.582H10.3184Z" fill="#C4171C"/>
<path d="M16.1777 17.1172C15.6934 17.1172 15.291 17.002 14.9707 16.7715C14.6543 16.541 14.4219 16.2402 14.2734 15.8691C14.1289 15.498 14.0566 15.0957 14.0566 14.6621V11.1465H15.4688V14.4805C15.4688 14.875 15.5664 15.1934 15.7617 15.4355C15.957 15.6777 16.2324 15.7988 16.5879 15.7988C17.0059 15.7988 17.3301 15.6797 17.5605 15.4414C17.791 15.2031 17.9062 14.8379 17.9062 14.3457V11.1465H19.3242V17H17.9062V16.3145C17.6875 16.5879 17.4238 16.791 17.1152 16.9238C16.8066 17.0527 16.4941 17.1172 16.1777 17.1172Z" fill="#C4171C"/>
<path d="M22.4355 16.8418L20.1445 11.1465H21.7148L23.1914 15.2129L24.6914 11.1465H26.2617L22.916 19.5195H21.3574L22.4355 16.8418Z" fill="#C4171C"/>
<path d="M31.834 10.0508H29.2383V8.7207H35.9121V10.0508H33.3223V17H31.834V10.0508Z" fill="#C4171C"/>
<path d="M36.7559 8.7207H38.2559V10.0391H36.7559V8.7207ZM36.791 11.1465H38.2207V17H36.791V11.1465Z" fill="#C4171C"/>
<path d="M42.252 17.1172C41.6426 17.1172 41.123 16.9766 40.6934 16.6953C40.2676 16.4141 39.9473 16.043 39.7324 15.582C39.5215 15.1172 39.416 14.6172 39.416 14.082C39.416 13.5508 39.5215 13.0527 39.7324 12.5879C39.9473 12.1191 40.2656 11.7422 40.6875 11.457C41.1133 11.168 41.6309 11.0234 42.2402 11.0234C42.834 11.0234 43.3496 11.1699 43.7871 11.4629C44.2246 11.752 44.5527 12.1816 44.7715 12.752L43.4121 13.2793C43.334 12.9902 43.1895 12.7578 42.9785 12.582C42.7715 12.4062 42.5254 12.3184 42.2402 12.3184C41.9277 12.3184 41.668 12.4023 41.4609 12.5703C41.2578 12.7344 41.1074 12.9512 41.0098 13.2207C40.916 13.4863 40.8691 13.7734 40.8691 14.082C40.8691 14.3984 40.916 14.6875 41.0098 14.9492C41.1035 15.2109 41.252 15.4219 41.4551 15.582C41.6621 15.7422 41.9238 15.8223 42.2402 15.8223C42.5215 15.8223 42.7676 15.7383 42.9785 15.5703C43.1895 15.3984 43.334 15.1719 43.4121 14.8906L44.7129 15.3828C44.5176 15.9297 44.2031 16.3555 43.7695 16.6602C43.3359 16.9648 42.8301 17.1172 42.252 17.1172Z" fill="#C4171C"/>
<path d="M45.8262 8.7207H47.2559V13.5781L49.4648 11.1465H51.3223L49.1309 13.4141L51.5625 17H49.875L48.1582 14.2871L47.2559 15.2832V17H45.8262V8.7207Z" fill="#C4171C"/>
<path d="M54.5449 17.1172C53.9004 17.1172 53.3555 16.9785 52.9102 16.7012C52.4648 16.4238 52.1309 16.0566 51.9082 15.5996C51.6895 15.1387 51.5801 14.6367 51.5801 14.0938C51.5801 13.5625 51.6855 13.0625 51.8965 12.5938C52.1074 12.125 52.4277 11.7461 52.8574 11.457C53.291 11.168 53.8223 11.0234 54.4512 11.0234C55.0918 11.0234 55.6152 11.1719 56.0215 11.4688C56.4277 11.7617 56.7188 12.1328 56.8945 12.582C57.0742 13.0273 57.1641 13.4922 57.1641 13.9766C57.1641 14.0938 57.1582 14.207 57.1465 14.3164C57.1387 14.4219 57.127 14.4961 57.1113 14.5391H53.0918C53.2285 15.3945 53.7168 15.8223 54.5566 15.8223C54.834 15.8223 55.0879 15.7734 55.3184 15.6758C55.5488 15.5781 55.7637 15.4199 55.9629 15.2012L56.9473 16.0625C56.627 16.418 56.2695 16.6836 55.875 16.8594C55.4805 17.0312 55.0371 17.1172 54.5449 17.1172ZM55.7578 13.5078C55.7578 13.3672 55.7422 13.2441 55.7109 13.1387C55.6406 12.8457 55.4902 12.6211 55.2598 12.4648C55.0332 12.3047 54.7598 12.2246 54.4395 12.2246C53.6973 12.2246 53.248 12.6523 53.0918 13.5078H55.7578Z" fill="#C4171C"/>
<path d="M60.4336 17.1172C60.0547 17.1172 59.7285 17.0469 59.4551 16.9062C59.1816 16.7656 58.9707 16.5664 58.8223 16.3086C58.6777 16.0469 58.6055 15.7383 58.6055 15.3828V12.3418H57.6621V11.1465H58.6289V9.69336L60.0352 8.67383V11.1465H61.5V12.3418H60.0352V15.1309C60.0352 15.3965 60.0918 15.584 60.2051 15.6934C60.3223 15.8027 60.4824 15.8574 60.6855 15.8574C60.8223 15.8574 60.9629 15.8379 61.1074 15.7988C61.252 15.7559 61.3828 15.7051 61.5 15.6465V16.9414C61.375 16.9883 61.2148 17.0293 61.0195 17.0645C60.8281 17.0996 60.6328 17.1172 60.4336 17.1172Z" fill="#C4171C"/>
<path d="M64.7227 17.1172C64.3242 17.1172 63.9551 17.0449 63.6152 16.9004C63.2793 16.752 62.9941 16.5547 62.7598 16.3086C62.5293 16.0586 62.3652 15.7812 62.2676 15.4766L63.4043 14.9727C63.5059 15.2461 63.6523 15.4746 63.8438 15.6582C64.0352 15.8418 64.3047 15.9336 64.6523 15.9336C64.8594 15.9336 65.0332 15.8984 65.1738 15.8281C65.3184 15.7578 65.4258 15.6699 65.4961 15.5645C65.5664 15.4551 65.6016 15.3457 65.6016 15.2363C65.6016 15.1113 65.5547 15.0078 65.4609 14.9258C65.3711 14.8438 65.2578 14.7793 65.1211 14.7324C64.9844 14.6816 64.7871 14.623 64.5293 14.5566C64.1426 14.4551 63.8242 14.3516 63.5742 14.2461C63.3281 14.1406 63.1133 13.9766 62.9297 13.7539C62.75 13.5273 62.6602 13.2246 62.6602 12.8457C62.6602 12.4512 62.7598 12.1172 62.959 11.8438C63.1582 11.5703 63.4219 11.3652 63.75 11.2285C64.082 11.0918 64.4434 11.0234 64.834 11.0234C65.3301 11.0234 65.7676 11.1348 66.1465 11.3574C66.5254 11.5801 66.8281 11.8926 67.0547 12.2949L65.9473 12.8984C65.8262 12.6797 65.6738 12.502 65.4902 12.3652C65.3105 12.2246 65.0762 12.1543 64.7871 12.1543C64.5605 12.1543 64.377 12.2031 64.2363 12.3008C64.0996 12.3984 64.0312 12.5176 64.0312 12.6582C64.0312 12.7676 64.0742 12.8594 64.1602 12.9336C64.2461 13.0078 64.3535 13.0684 64.4824 13.1152C64.6152 13.1621 64.8008 13.2207 65.0391 13.291C65.4414 13.4043 65.7734 13.5215 66.0352 13.6426C66.2969 13.7598 66.5234 13.9414 66.7148 14.1875C66.9102 14.4336 67.0078 14.7598 67.0078 15.166C67.0078 15.5957 66.8984 15.957 66.6797 16.25C66.4609 16.543 66.1777 16.7617 65.8301 16.9062C65.4824 17.0469 65.1133 17.1172 64.7227 17.1172Z" fill="#C4171C"/>
</svg>
