<svg width="20" height="14" viewBox="0 0 20 14" fill="none" xmlns="http://www.w3.org/2000/svg">
<path fill-rule="evenodd" clip-rule="evenodd" d="M0 0.967763C0 0.433282 0.433282 0 0.967763 0H7.95716V5.61299H12.0433V3.94553e-06L19.0327 3.32255e-06C19.5671 3.25333e-06 20.0004 0.433285 20.0004 0.967766C20.0004 1.50225 19.5671 1.93553 19.0327 1.93553L13.9788 1.93553L13.9788 11.6132H19.0327C19.5672 11.6132 20.0004 12.0464 20.0004 12.5809C20.0004 13.1154 19.5672 13.5487 19.0327 13.5487H12.0433V7.54852H7.95716V13.5487H0.967763C0.433282 13.5487 0 13.1154 0 12.5809C0 12.0464 0.433282 11.6131 0.967763 11.6131H6.02164V6.6077C6.02139 6.59875 6.02127 6.58976 6.02127 6.58076C6.02127 6.57175 6.02139 6.56277 6.02164 6.55382V1.93553H0.967763C0.433282 1.93553 0 1.50224 0 0.967763Z" fill="black"/>
</svg>
