<svg width="20" height="19" viewBox="0 0 20 19" fill="none" xmlns="http://www.w3.org/2000/svg">
<path fill-rule="evenodd" clip-rule="evenodd" d="M15.7265 0.260603C16.0802 -0.0868677 16.6471 -0.0868677 17.0007 0.260603L19.728 2.94003C20.0862 3.29189 20.0913 3.86748 19.7394 4.22563C19.3875 4.58378 18.8119 4.58887 18.4538 4.237L17.2727 3.07665V12.5199C17.2727 13.022 16.8657 13.429 16.3636 13.429H7.27273C6.77065 13.429 6.36364 13.022 6.36364 12.5199C6.36364 12.0179 6.77065 11.6108 7.27273 11.6108H15.4545V3.07665L14.2735 4.237C13.9153 4.58887 13.3397 4.58378 12.9879 4.22563C12.636 3.86748 12.6411 3.29189 12.9993 2.94003L15.7265 0.260603ZM2.72727 8.05422C2.72727 7.55215 3.13429 7.14513 3.63636 7.14513H12.7273C13.2293 7.14513 13.6364 7.55215 13.6364 8.05422C13.6364 8.5563 13.2293 8.96332 12.7273 8.96332H4.54545V15.7112L5.72653 14.5509C6.08467 14.199 6.66026 14.2041 7.01212 14.5623C7.36399 14.9204 7.3589 15.496 7.00075 15.8478L4.27347 18.5273C3.9198 18.8747 3.35293 18.8747 2.99925 18.5273L0.27198 15.8478C-0.0861694 15.496 -0.091263 14.9204 0.260603 14.5623C0.61247 14.2041 1.18805 14.199 1.5462 14.5509L2.72727 15.7112L2.72727 8.05422Z" fill="black"/>
</svg>
