<svg width="20" height="20" viewBox="0 0 20 20" fill="none" xmlns="http://www.w3.org/2000/svg">
<path fill-rule="evenodd" clip-rule="evenodd" d="M14.8353 2.05917C13.9309 1.93754 12.7304 1.93549 11 1.93549H9.19355C7.4633 1.93549 6.26294 1.93777 5.35875 2.05949C4.48239 2.17748 4.03003 2.39149 3.71033 2.71091C3.39105 3.02992 3.17706 3.48177 3.05917 4.35829C2.93754 5.26263 2.93549 6.46315 2.93549 8.19355V11.8065C2.93549 13.5367 2.93777 14.7371 3.05949 15.6413C3.17748 16.5176 3.39149 16.97 3.71091 17.2897C4.02992 17.6089 4.48177 17.8229 5.35829 17.9408C6.26263 18.0625 7.46315 18.0645 9.19355 18.0645H11C12.7302 18.0645 13.9306 18.0622 14.8348 17.9405C15.7112 17.8225 16.1635 17.6085 16.4832 17.2891C16.8025 16.9701 17.0165 16.5182 17.1344 15.6417C17.256 14.7374 17.2581 13.5369 17.2581 11.8065V8.19355C17.2581 6.4633 17.2558 5.26294 17.1341 4.35875C17.0161 3.48239 16.8021 3.03003 16.4826 2.71033C16.1636 2.39105 15.7118 2.17706 14.8353 2.05917ZM15.0933 0.14096C16.1844 0.287717 17.1131 0.603015 17.8518 1.34232C18.5901 2.0812 18.9053 3.00942 19.0522 4.10051C19.1936 5.15049 19.1936 6.48395 19.1935 8.13089V11.8767C19.1936 13.52 19.1936 14.8513 19.0526 15.8997C18.9058 16.9909 18.5905 17.9196 17.8512 18.6583C17.1123 19.3965 16.1841 19.7118 15.093 19.8587C14.0431 20 12.7096 20 11.0627 20H9.12332C7.48 20 6.14874 20.0001 5.10029 19.859C4.00913 19.7123 3.08041 19.397 2.34174 18.6577C1.60348 17.9188 1.2882 16.9906 1.14132 15.8995C0.99996 14.8495 0.999979 13.516 1 11.8691L1 8.12327C0.999972 6.47998 0.99995 5.14873 1.14096 4.1003C1.28772 3.00913 1.60302 2.08041 2.34232 1.34174C3.0812 0.603482 4.00942 0.288204 5.10051 0.141315C6.15049 -3.96967e-05 7.48395 -2.14201e-05 9.1309 1.07589e-06L11.0703 7.99018e-07C12.7136 -2.75113e-05 14.0448 -5.04947e-05 15.0933 0.14096ZM13.0796 3.19249C13.0793 3.19243 13.0799 3.19254 13.0796 3.19249L13.4638 3.25575C13.8729 3.32406 14.2615 3.48323 14.601 3.72156C14.9404 3.95988 15.2221 4.2713 15.4254 4.63289C15.6286 4.99447 15.7481 5.39703 15.7752 5.81092C15.8023 6.22469 15.7363 6.63928 15.582 7.02418C15.5819 7.02428 15.582 7.02407 15.582 7.02418L14.9816 8.52573C14.7921 8.99879 14.4382 9.38971 13.9815 9.62315C13.5262 9.85583 13.0021 9.91571 12.5061 9.79172C10.926 9.3967 9.27172 9.39669 7.69163 9.79171C6.66713 10.0478 5.60856 9.50935 5.21611 8.52559C5.21596 8.52523 5.21625 8.52594 5.21611 8.52559L4.61474 7.02306C4.61473 7.02306 4.61474 7.02307 4.61474 7.02306C4.46064 6.63806 4.3948 6.22338 4.42209 5.80958C4.44939 5.39577 4.56911 4.99335 4.77245 4.63191C4.97579 4.27048 5.25758 3.95923 5.59708 3.72107C5.93658 3.4829 6.32516 3.32389 6.73422 3.25571L6.73639 3.25535L7.11899 3.19249C7.11864 3.19254 7.11934 3.19243 7.11899 3.19249C9.09162 2.86384 11.107 2.86383 13.0796 3.19249ZM12.7614 5.10164C10.9988 4.80788 9.19977 4.80788 7.43718 5.10164L7.435 5.102L7.0524 5.16486C7.05211 5.16491 7.05269 5.16481 7.0524 5.16486C6.92905 5.18555 6.81101 5.23372 6.70861 5.30555C6.60597 5.37755 6.52078 5.47165 6.4593 5.58092C6.39783 5.6902 6.36163 5.81186 6.35338 5.93696C6.34513 6.06207 6.36503 6.18743 6.41162 6.30383L7.01378 7.80832C7.04618 7.88968 7.13431 7.93599 7.22221 7.91402C7.26089 7.90435 7.2996 7.89488 7.33835 7.8856L6.93268 6.7556C6.75209 6.25256 7.01348 5.69837 7.51651 5.51778C8.01955 5.33719 8.57374 5.59859 8.75433 6.10162L9.28784 7.58771C10.5224 7.50313 11.767 7.6119 12.9755 7.91402C13.0176 7.92453 13.062 7.91945 13.1006 7.89972C13.1377 7.88075 13.1678 7.8485 13.1846 7.80669L13.7851 6.30503C13.8317 6.18864 13.852 6.06244 13.8439 5.93731C13.8357 5.81218 13.7995 5.69047 13.7381 5.58116C13.6766 5.47184 13.5915 5.37769 13.4888 5.30564C13.3864 5.23374 13.2692 5.18567 13.1458 5.16495C13.1456 5.16491 13.1461 5.16499 13.1458 5.16495L12.7614 5.10164ZM5.51731 15.4193C5.51731 14.8848 5.95058 14.4516 6.48505 14.4516H13.7109C14.2453 14.4516 14.6786 14.8848 14.6786 15.4193C14.6786 15.9538 14.2453 16.3871 13.7109 16.3871H6.48505C5.95058 16.3871 5.51731 15.9538 5.51731 15.4193Z" fill="black"/>
</svg>
