<svg width="20" height="20" viewBox="0 0 20 20" fill="none" xmlns="http://www.w3.org/2000/svg">
<g clip-path="url(#clip0_3556_2643)">
<path d="M17.8288 9.99587C17.8288 14.3904 14.2653 17.9526 9.86981 17.9526C9.34062 17.9526 8.82341 17.9002 8.32273 17.8016L7.62988 19.7483C8.3501 19.913 9.09998 20.0002 9.87038 20.0002C15.3972 20.0002 19.8777 15.5214 19.8777 9.99587C19.8777 9.86419 19.8742 9.73308 19.8691 9.60254L17.8282 9.91949C17.8282 9.94457 17.8288 9.97022 17.8288 9.99587Z" fill="black"/>
<path d="M9.06509 7.98818C13.0055 5.76499 16.7714 5.72565 16.7714 5.72565C16.7714 5.72565 14.6832 5.17955 13.9812 5.25764C13.3539 5.32719 7.43475 5.77069 2.31336 10.7843C1.70491 11.38 1.10786 12.0389 0.532483 12.7703C0.528491 12.7754 0.5245 12.78 0.520508 12.7851C0.520508 12.7851 0.59407 12.9767 0.706408 13.2606C0.741193 13.3478 0.7794 13.4441 0.819888 13.5462C1.09304 14.2034 1.42948 14.8282 1.82181 15.4119C2.01513 15.1149 2.50725 14.3801 3.21835 13.4612C4.56356 11.7231 6.69115 9.32722 9.06509 7.98818Z" fill="black"/>
<path d="M15.4262 7.12744C12.0691 7.85426 7.72956 9.56326 4.0144 14.6772C3.58329 15.2706 3.16074 15.9096 2.74902 16.5988C3.7538 17.7195 4.99009 18.6288 6.38264 19.2507C6.47958 18.9326 6.73277 18.1739 7.20721 17.2031C7.99701 15.5875 9.40095 13.3854 11.7196 11.6519C13.5307 10.2981 15.2466 9.34094 16.8929 8.79598C17.8087 8.49271 18.7034 8.31714 19.5799 8.2721C20.7591 8.21168 21.907 8.38668 23.0344 8.80453C23.0344 8.80453 18.9395 7.18331 17.4814 6.97524C16.8164 6.88004 16.1173 6.97752 15.4262 7.12744Z" fill="black"/>
<path d="M2.21414 8.97526C2.78835 8.41041 3.46405 7.86437 4.22187 7.46367C6.1087 6.46506 7.06837 6.39267 7.42191 6.41604C6.81691 6.34137 4.61531 6.20515 2.23239 7.70363C1.49168 8.16931 0.733295 8.79287 0 9.62561C0.0125447 10.2737 0.0821108 10.9075 0.204137 11.5231C0.430512 11.1469 1.14556 10.0275 2.21414 8.97526Z" fill="black"/>
<path d="M9.87388 2.04762C12.31 2.04762 14.49 3.14211 15.9499 4.86537L17.7758 3.8655C15.9447 1.51348 13.0861 0 9.87388 0C6.54022 0 3.58862 1.62977 1.76953 4.13456L3.50251 5.23419C4.95493 3.29944 7.26785 2.04762 9.87388 2.04762Z" fill="black"/>
</g>
<defs>
<clipPath id="clip0_3556_2643">
<rect width="20" height="20" fill="white"/>
</clipPath>
</defs>
</svg>
